<?xml version="1.0" standalone="no"?>
<!DOCTYPE svg PUBLIC "-//W3C//DTD SVG 20010904//EN"
 "http://www.w3.org/TR/2001/REC-SVG-20010904/DTD/svg10.dtd">
<svg version="1.0" xmlns="http://www.w3.org/2000/svg"
 width="512.000000pt" height="512.000000pt" viewBox="0 0 512.000000 512.000000"
 preserveAspectRatio="xMidYMid meet">
<metadata>
Created by potrace 1.14, written by Peter Selinger 2001-2017
</metadata>
<g transform="translate(0.000000,512.000000) scale(0.100000,-0.100000)"
fill="#000000" stroke="none">
<path d="M2280 5110 c-25 -4 -63 -10 -85 -13 -90 -13 -123 -19 -180 -33 -75
-18 -77 -19 -150 -38 -33 -9 -67 -19 -75 -21 -62 -16 -239 -88 -355 -145 -219
-108 -373 -210 -545 -360 -114 -99 -310 -302 -310 -320 0 -5 -4 -10 -8 -12
-24 -9 -283 -398 -266 -398 4 0 1 -6 -5 -14 -16 -19 -82 -157 -108 -226 -31
-80 -36 -94 -38 -100 -9 -27 -18 -48 -26 -63 -6 -11 -8 -21 -5 -24 3 -3 0 -15
-6 -27 -7 -11 -13 -28 -14 -36 -4 -21 -12 -55 -14 -55 -1 0 -3 -9 -6 -20 -2
-11 -14 -69 -27 -130 -14 -60 -27 -137 -31 -170 -3 -33 -9 -73 -12 -90 -4 -16
-6 -129 -6 -250 0 -226 19 -407 58 -559 16 -62 21 -83 30 -124 2 -12 18 -62
35 -110 17 -48 37 -106 44 -129 8 -23 34 -85 59 -137 25 -53 46 -98 46 -101 0
-2 30 -55 67 -117 38 -62 70 -117 72 -123 9 -21 181 -244 232 -300 112 -123
296 -295 317 -295 7 0 10 -4 7 -10 -3 -5 -1 -10 5 -10 6 0 38 -22 73 -49 58
-45 252 -171 263 -171 3 0 18 -9 32 -19 15 -10 30 -19 35 -20 4 0 40 -16 80
-35 39 -18 88 -41 107 -50 39 -17 226 -85 250 -91 8 -1 35 -8 60 -15 25 -7 52
-14 60 -16 101 -25 139 -33 178 -39 26 -3 73 -10 105 -16 139 -24 468 -26 632
-4 22 3 56 7 75 10 32 4 141 25 200 39 61 14 80 17 83 14 2 -2 11 3 20 11 10
7 17 11 17 7 0 -3 16 1 36 9 20 8 40 12 45 9 5 -3 9 0 9 5 0 6 3 10 8 9 26 -8
436 173 487 214 6 5 52 34 102 66 51 31 101 64 111 72 9 8 44 35 77 59 75 56
118 94 225 202 190 191 326 367 417 541 8 16 19 28 24 28 5 0 8 3 7 8 -1 4 22
57 51 117 55 114 151 358 151 385 0 9 5 21 12 28 7 7 9 12 6 12 -4 0 0 22 8
49 8 28 14 53 13 58 -1 4 3 22 10 38 7 17 14 49 14 72 1 24 4 43 7 43 3 0 7
12 8 28 1 15 4 38 7 52 22 105 26 545 6 670 -6 41 -14 91 -17 110 -2 19 -9 55
-15 80 -5 25 -11 55 -14 68 -2 12 -6 26 -9 30 -3 5 -8 24 -11 43 -4 19 -8 39
-9 44 -1 6 -5 16 -9 23 -5 6 -6 12 -3 12 3 0 -3 21 -13 48 -10 26 -20 52 -21
57 -2 6 -6 19 -10 30 -5 11 -18 47 -30 80 -31 83 -137 301 -171 352 -16 23
-29 44 -29 47 0 6 -78 125 -104 157 -12 14 -28 36 -36 49 -39 58 -119 149
-220 250 -118 118 -200 193 -237 217 -15 9 -30 20 -33 23 -39 41 -276 189
-415 258 -129 65 -355 153 -428 166 -12 3 -22 5 -22 6 0 2 -9 4 -115 30 -47
11 -104 22 -127 25 -23 3 -76 12 -116 19 -81 14 -519 18 -597 6z"/>
</g>
</svg>
